# AST/ASF file generated using VICON BodyLanguage
# -----------------------------------------------
:version 1.10
:name VICON
:units
  mass 1.0
  length 0.45
  angle deg
:documentation
   .ast/.asf automatically generated from VICON data using
   VICON BodyBuilder and BodyLanguage model FoxedUp or BRILLIANT.MOD
:root
   order TX TY TZ RX RY RZ
   axis XYZ
   position 0 0 0  
   orientation 0 0 0 
:bonedata
  begin
     id 1 
     name lhipjoint
     direction 0.716248 -0.617586 0.324924 
     length 2.63557 
     axis 0 0 0  XYZ
  end
  begin
     id 2 
     name lfemur
     direction 0.34202 -0.939693 0  
     length 7.01235  
     axis 0 0 20  XYZ
    dof rx ry rz
    limits (-160.0 20.0)
           (-70.0 70.0)
           (-60.0 70.0)
  end
  begin
     id 3 
     name ltibia
     direction 0.34202 -0.939693 0   
     length 8.14348   
     axis 0 0 20   XYZ
    dof rx
    limits (-10.0 170.0)
  end
  begin
     id 4 
     name lfoot
     direction 0.0982064 -0.26982 0.95789   
     length 1.99077   
     axis -90 7.62852e-016 20   XYZ
    dof rx rz
    limits (-45.0 90.0)
           (-70.0 20.0)
  end
  begin
     id 5 
     name ltoes
     direction 1.53511e-011 -4.21891e-011 1   
     length 0.99735   
     axis -90 7.62852e-016 20   XYZ
    dof rx
    limits (-90.0 20.0)
  end
  begin
     id 6 
     name rhipjoint
     direction -0.687828 -0.642391 0.337975   
     length 2.5338  
     axis 0 0 0  XYZ 
  end
  begin
     id 7 
     name rfemur
     direction -0.34202 -0.939693 0   
     length 6.90199   
     axis 0 0 -20   XYZ
    dof rx ry rz
    limits (-160.0 20.0)
           (-70.0 70.0)
           (-70.0 60.0)
  end
  begin
     id 8 
     name rtibia
     direction -0.34202 -0.939693 0   
     length 8.07725   
     axis 0 0 -20   XYZ
    dof rx
    limits (-10.0 170.0)
 end
 begin
     id 9 
     name rfoot
     direction -0.0912384 -0.250675 0.963762   
     length 2.11621  
     axis -90 -7.62852e-016 -20   XYZ
    dof rx rz
    limits (-45.0 90.0)
           (-20.0 70.0)
  end
  begin
     id 10 
     name rtoes
     direction -1.5359e-011 -4.21894e-011 1   
     length 1.06031   
     axis -90 -7.62852e-016 -20   XYZ
    dof rx
    limits (-90.0 20.0)
  end
  begin
     id 11 
     name lowerback
     direction -0.0403572 0.987953 -0.149396   
     length 2.05637   
     axis 0 0 0   XYZ
    dof rx ry rz
    limits (-20.0 45.0)
           (-30.0 30.0)
           (-30.0 30.0)
  end
  begin
     id 12 
     name upperback
     direction -0.00512151 0.997598 0.0690792   
     length 2.01086   
     axis 0 0 0   XYZ
    dof rx ry rz
    limits (-20.0 45.0)
           (-30.0 30.0)
           (-30.0 30.0)
  end
  begin
     id 13 
     name thorax
     direction 0.0136133 0.989392 0.14463   
     length 2.09035   
     axis 0 0 0   XYZ
    dof rx ry rz
    limits (-20.0 45.0)
           (-30.0 30.0)
           (-30.0 30.0)
  end
  begin
     id 14 
     name lowerneck
     direction 0.0250714 0.992811 0.11704   
     length 1.70806   
     axis 0 0 0   XYZ
    dof rx ry rz
    limits (-20.0 45.0)
           (-30.0 30.0)
           (-30.0 30.0)
  end
  begin
     id 15 
     name upperneck
     direction -0.0519205 0.998394 -0.0226787   
     length 1.6689   
     axis 0 0 0   XYZ
    dof rx ry rz
    limits (-20.0 45.0)
           (-30.0 30.0)
           (-30.0 30.0)
  end
  begin
     id 16
     name head
     direction -0.0201693 0.999547 -0.0223192  
     length 1.83412  
     axis 0 0 0   XYZ
    dof rx ry rz
    limits (-20.0 45.0)
           (-30.0 30.0)
           (-30.0 30.0)
  end
  begin
     id 17 
     name lclavicle
     direction 0.89585 0.444077 -0.0157448  
     length 3.39587  
     axis 0 0 0   XYZ
    dof ry rz
    limits (-20.0 10.0)
           (0.0 20.0)
  end
  begin
     id 18 
     name lhumerus
     direction 1 -4.48956e-011 1.99132e-028   
     length 5.79199   
     axis 180 -30 -90   XYZ
    dof rx ry rz
    limits (-60.0 90.0)
           (-90.0 90.0)
           (-90.0 90.0)
  end
  begin
     id 19
     name lradius
     direction 1 -4.48974e-011 8.72912e-028   
     length 3.49908   
     axis 180 -30 -90   XYZ
    dof rx
    limits (-10.0 170.0)
  end
  begin
     id 20
     name lwrist
     direction 1 -4.48994e-011 4.76442e-027   
     length 1.74954   
     axis -3.27502e-015 90 90   XYZ
    dof ry
    limits (-180.0 0.0)
 end
  begin
     id 21 
     name lhand
     direction 1 -4.48945e-011 9.531e-027   
     length 0.593861   
     axis -6.08098e-015 90 90   XYZ
    dof rx rz
    limits (-90.0 90.0)
           (-45.0 45.0)
  end
  begin
     id 22 
     name lfingers
     direction 1 -4.48945e-011 1.9062e-026   
     length 0.478786   
     axis -1.21619e-014 90 90   XYZ
    dof rx
    limits (0.0 90.0)
  end
  begin
     id 23
     name lthumb
     direction 0.707107 -6.34904e-011 0.707107   
     length 0.687444   
     axis -90 45 -9.86923e-015   XYZ
    dof rx rz
    limits (-45.0 45.0)
           (-45.0 45.0)
  end
  begin
     id 24 
     name rclavicle
     direction -0.940466 0.338394 0.0318182   
     length 3.51226  
     axis 0 0 0   XYZ 
    dof ry rz
    limits (-10.0 20.0)
           (-20.0 0.0)
  end
  begin
     id 25 
     name rhumerus
     direction -1 -4.48976e-011 2.0905e-027  
     length 5.73799   
     axis 180 30 90   XYZ
    dof rx ry rz
    limits (-90.0 60.0)
           (-90.0 90.0)
           (-90.0 90.0)
  end
  begin
     id 26 
     name rradius
     direction -1 -4.48968e-011 -9.39692e-029   
     length 3.57916   
     axis 180 30 90   XYZ
    dof rx
    limits (-10.0 170.0)
  end
  begin
     id 27 
     name rwrist
     direction -1 -4.48959e-011 4.7652e-027   
     length 1.78958   
     axis -3.27502e-015 -90 -90   XYZ
    dof ry
    limits (-180.0 0.0)
  end
  begin
     id 28
     name rhand
     direction -1 -4.49042e-011 9.5267e-027   
     length 0.615577   
     axis -6.08098e-015 -90 -90   XYZ
    dof rx rz
    limits (-90.0 90.0)
           (-45.0 45.0)
  end
  begin
     id 29
     name rfingers
     direction -1 -4.48935e-011 1.90629e-026   
     length 0.496294   
     axis -1.21619e-014 -90 -90   XYZ
    dof rx
    limits (0.0 90.0)
  end
  begin
     id 30
     name rthumb
     direction -0.707107 -6.34977e-011 0.707107   
     length 0.712582   
     axis -90 -45 9.86923e-015   XYZ
    dof rx rz
    limits (-45.0 45.0)
           (-45.0 45.0)
  end
:hierarchy
  begin
    root lhipjoint rhipjoint lowerback
    lhipjoint lfemur
    lfemur ltibia
    ltibia lfoot
    lfoot ltoes
    rhipjoint rfemur
    rfemur rtibia
    rtibia rfoot
    rfoot rtoes
    lowerback upperback
    upperback thorax
    thorax lowerneck lclavicle rclavicle
    lowerneck upperneck
    upperneck head
    lclavicle lhumerus
    lhumerus lradius
    lradius lwrist
    lwrist lhand lthumb
    lhand lfingers
    rclavicle rhumerus
    rhumerus rradius
    rradius rwrist
    rwrist rhand rthumb
    rhand rfingers
  end

#!OML:ASF H:\Terrain\Patient Classification 1\PaulMetrics\March17Take5\PaulMetrics.ASF
:FULLY-SPECIFIED
:DEGREES
706
root 7.58017 17.1246 -7.49486 7.76425 192.38 -3.99874
lowerback 1.88001 -0.836357 -6.53991
upperback -2.42868 -1.41828 -0.236739
thorax -3.42459 -0.566573 3.489
lowerneck -6.03667 6.26902 7.73444
upperneck 12.1649 8.58039 -9.57642
head 5.39885 3.84454 -3.67728
rclavicle -2.3792e-014 1.48592e-014
rhumerus -51.0924 10.5944 -91.7383
rradius 37.7439
rwrist -6.19777
rhand -13.6225 -28.9851
rfingers 7.12502
rthumb 12.4931 -58.5917
lclavicle -2.3792e-014 1.48592e-014
lhumerus -42.3721 -15.2781 84.7306
lradius 56.0167
lwrist 22.0143
lhand -11.4331 -21.2688
lfingers 7.12502
lthumb 14.6033 8.19708
rfemur -34.0408 3.32755 19.2802
rtibia 36.9503
rfoot -7.65532 -9.91001
rtoes 11.7392
lfemur -4.39642 1.38637 -23.2079
ltibia 49.733
lfoot 7.65857 -2.66346
ltoes -2.80258
707
root 7.59041 17.1429 -7.64706 7.92379 192.504 -3.75373
lowerback 1.70155 -0.802342 -6.19258
upperback -2.4345 -1.35268 -0.334789
thorax -3.34434 -0.54757 3.18637
lowerneck -6.13469 6.18571 8.11537
upperneck 12.1399 8.43367 -9.60853
head 5.41229 3.79204 -3.75832
rclavicle -9.39646e-015 1.54074e-014
rhumerus -50.5962 9.91088 -91.4615
rradius 37.6755
rwrist -5.69265
rhand -12.7821 -29.3708
rfingers 7.12502
rthumb 13.3032 -58.9262
lclavicle -9.39646e-015 1.54074e-014
lhumerus -42.3347 -15.3718 84.7538
lradius 55.0661
lwrist 21.6477
lhand -11.6102 -21.959
lfingers 7.12502
lthumb 14.4326 7.51911
rfemur -33.6299 3.45339 19.701
rtibia 36.8293
rfoot -8.18572 -10.1083
rtoes 11.308
lfemur -6.37153 1.32221 -22.8827
ltibia 52.3048
lfoot 8.96338 -2.32859
ltoes -5.08105
708
root 7.59392 17.1575 -7.79662 7.83231 192.591 -3.33665
lowerback 1.69216 -0.885005 -5.81117
upperback -2.42844 -1.4381 -0.181701
thorax -3.32667 -0.59568 3.13439
lowerneck -6.18587 6.19797 7.80365
upperneck 12.2103 8.4538 -9.38088
head 5.42151 3.79807 -3.63264
rclavicle 9.50284e-015 3.39798e-015
rhumerus -50.1395 9.88433 -91.1344
rradius 37.4703
rwrist -5.39527
rhand -12.3147 -29.6682
rfingers 7.12502
rthumb 13.7537 -59.1936
lclavicle 9.50284e-015 3.39798e-015
lhumerus -42.512 -14.9003 84.928
lradius 54.2246
lwrist 21.3552
lhand -11.7329 -22.476
lfingers 7.12502
lthumb 14.3144 7.01055
rfemur -32.9239 3.37855 20.3607
rtibia 36.5859
rfoot -8.68087 -10.1195
rtoes 10.167
lfemur -7.9545 1.13544 -22.4081
ltibia 54.7581
lfoot 9.16292 -1.46785
ltoes -7.2031
709
root 7.59152 17.167 -7.94288 7.72796 192.568 -2.7695
lowerback 1.69103 -0.962405 -5.31075
upperback -2.4759 -1.51133 0.086799
thorax -3.37064 -0.636346 3.13538
lowerneck -6.22848 6.24995 7.15951
upperneck 12.3321 8.54648 -9.03284
head 5.43173 3.8277 -3.40981
rclavicle 1.00681e-014 6.31141e-015
rhumerus -49.9774 10.3652 -90.964
rradius 37.5049
rwrist -5.70889
rhand -12.8767 -29.9355
rfingers 7.12502
rthumb 13.212 -59.4969
lclavicle 1.00681e-014 6.31141e-015
lhumerus -42.8143 -14.3292 85.1915
lradius 53.4237
lwrist 21.1362
lhand -11.8298 -22.2327
lfingers 7.12502
lthumb 14.221 7.26042
rfemur -32.2249 3.29661 21.1654
rtibia 36.2819
rfoot -8.9192 -9.95904
rtoes 9.73475
lfemur -9.54297 1.15717 -21.8434
ltibia 57.0921
lfoot 8.45382 -1.096
ltoes -8.84447
710
root 7.59089 17.1868 -8.08604 7.71954 192.58 -2.18064
lowerback 1.62146 -0.937721 -4.73061
upperback -2.51632 -1.44866 0.24161
thorax -3.38593 -0.615736 2.96655
lowerneck -6.15497 6.22661 7.05454
upperneck 12.2753 8.51518 -8.9438
head 5.39048 3.81667 -3.36966
rclavicle 3.18211e-014 -4.62174e-015
rhumerus -49.923 10.3115 -90.7412
rradius 37.8552
rwrist -5.77076
rhand -13.6285 -29.8295
rfingers 7.12502
rthumb 12.4873 -59.4364
lclavicle 3.18211e-014 -4.62174e-015
lhumerus -42.9169 -14.2781 85.443
lradius 52.4673
lwrist 20.9774
lhand -11.9916 -21.9896
lfingers 7.12502
lthumb 14.0651 7.51447
rfemur -31.6232 3.36702 21.9614
rtibia 35.9917
rfoot -9.07706 -9.96606
rtoes 10.295
lfemur -11.3947 1.34172 -21.3033
ltibia 59.3074
lfoot 7.55809 -1.45685
ltoes -11.9876
711
root 7.59154 17.2088 -8.22706 7.77132 192.619 -1.96491
lowerback 1.62221 -0.896841 -4.50028
upperback -2.53383 -1.38759 0.224748
thorax -3.41428 -0.590604 2.81765
lowerneck -5.96669 6.17011 7.40025
upperneck 12.1612 8.41713 -9.01407
head 5.33251 3.79035 -3.46106
rclavicle -2.02077e-014 -1.19519e-014
rhumerus -49.7058 10.0728 -90.5456
rradius 38.1806
rwrist -5.74278
rhand -13.6693 -30.0022
rfingers 7.12502
rthumb 12.448 -59.6115
lclavicle -2.02077e-014 -1.19519e-014
lhumerus -42.897 -14.2848 85.5984
lradius 51.4748
lwrist 20.8286
lhand -11.8307 -21.9532
lfingers 7.12502
lthumb 14.2201 7.54004
rfemur -31.0275 3.49297 22.3253
rtibia 35.7396
rfoot -9.42194 -10.0837
rtoes 11.5143
lfemur -13.2375 1.21075 -21.1346
ltibia 61.3788
lfoot 6.83941 -1.15452
ltoes -10.104
712
root 7.5931 17.2154 -8.36373 7.91867 192.55 -2.03409
lowerback 1.59422 -0.91844 -4.69151
upperback -2.53767 -1.42075 0.261824
thorax -3.39536 -0.602233 2.96409
lowerneck -5.96402 6.16211 7.42243
upperneck 12.2084 8.40716 -9.03569
head 5.34764 3.78341 -3.47233
rclavicle -3.84276e-014 -8.19987e-015
rhumerus -49.3272 10.2856 -90.3741
rradius 38.4125
rwrist -5.96316
rhand -13.4885 -30.4242
rfingers 7.12502
rthumb 12.6223 -60.0229
lclavicle -3.84276e-014 -8.19987e-015
lhumerus -42.8006 -13.933 85.7723
lradius 50.4547
lwrist 20.6368
lhand -11.3887 -21.6242
lfingers 7.12502
lthumb 14.646 7.83854
rfemur -30.5665 3.70642 22.3367
rtibia 35.521
rfoot -9.95517 -10.13
rtoes 12.293
lfemur -14.9882 1.06806 -21.3144
ltibia 63.153
lfoot 6.05973 -0.720201
ltoes -7.17155
713
root 7.59229 17.2177 -8.50093 7.96765 192.342 -1.76824
lowerback 1.51421 -0.839281 -4.57079
upperback -2.48021 -1.29908 0.36798
thorax -3.3004 -0.545263 2.99874
lowerneck -6.18623 6.15365 7.127
upperneck 12.2833 8.39427 -8.80048
head 5.38506 3.7729 -3.34502
rclavicle -3.54085e-015 -6.33626e-015
rhumerus -48.9293 10.4939 -90.204
rradius 38.6204
rwrist -6.24508
rhand -13.8065 -30.3978
rfingers 7.12502
rthumb 12.3156 -60.0151
lclavicle -3.54085e-015 -6.33626e-015
lhumerus -42.6698 -13.9426 86.0308
lradius 49.517
lwrist 20.4666
lhand -11.2133 -21.2391
lfingers 7.12502
lthumb 14.815 8.21132
rfemur -30.0733 3.84161 22.7323
rtibia 35.3152
rfoot -10.3998 -9.89353
rtoes 12.5589
lfemur -16.54 1.18566 -21.2221
ltibia 64.6304
lfoot 5.14097 -0.657559
ltoes -8.99105
714
root 7.58786 17.2166 -8.63834 7.87673 192.241 -1.25098
lowerback 1.46281 -0.762875 -4.098
upperback -2.39064 -1.16987 0.471159
thorax -3.19419 -0.493209 2.83264
lowerneck -6.33173 6.16182 6.9464
upperneck 12.2843 8.38671 -8.48823
head 5.38866 3.78149 -3.2138
rclavicle -7.2207e-015 -8.87077e-015
rhumerus -48.4933 10.5344 -90.0342
rradius 38.7513
rwrist -6.38413
rhand -14.1891 -30.3954
rfingers 7.12502
rthumb 11.9468 -60.0345
lclavicle -7.2207e-015 -8.87077e-015
lhumerus -42.6128 -14.1004 86.266
lradius 48.5915
lwrist 20.2658
lhand -11.2976 -21.0553
lfingers 7.12502
lthumb 14.7338 8.40104
rfemur -29.3953 3.85779 23.4316
rtibia 35.0266
rfoot -10.7202 -9.65114
rtoes 12.6518
lfemur -17.9789 1.15955 -20.8543
ltibia 65.9459
lfoot 4.25349 -0.560435
ltoes -10.9456
715
root 7.58722 17.2209 -8.77204 7.81548 192.099 -1.03959
lowerback 1.52705 -0.696857 -3.95119
upperback -2.35482 -1.07696 0.481816
thorax -3.20245 -0.449822 2.75826
lowerneck -6.44378 6.12358 7.07504
upperneck 12.4168 8.32596 -8.52726
head 5.45102 3.74989 -3.24831
rclavicle 3.7372e-015 -5.49841e-015
rhumerus -48.1203 10.3854 -89.8042
rradius 39.0293
rwrist -6.37724
rhand -14.2428 -30.5874
rfingers 7.12502
rthumb 11.895 -60.2296
lclavicle 3.7372e-015 -5.49841e-015
lhumerus -42.6205 -14.1134 86.4132
lradius 47.551
lwrist 19.9282
lhand -11.1174 -20.9472
lfingers 7.12502
lthumb 14.9074 8.49636
rfemur -28.6275 4.17296 23.7529
rtibia 34.6414
rfoot -11.1152 -9.66699
rtoes 13.2485
lfemur -19.4469 1.07899 -20.7907
ltibia 67.0837
lfoot 3.19468 -0.334836
ltoes -11.3393
716
root 7.58851 17.2491 -8.90999 7.89945 191.74 -0.91915
lowerback 1.51245 -0.429558 -3.80438
upperback -2.35908 -0.721664 0.299288
thorax -3.2291 -0.278621 2.4728
lowerneck -6.68518 5.961 7.50044
upperneck 12.6175 8.07723 -8.68385
head 5.55812 3.63085 -3.3803
rclavicle -1.39553e-014 -1.49089e-016
rhumerus -47.824 9.76291 -89.6385
rradius 39.4894
rwrist -6.49364
rhand -14.5272 -30.3391
rfingers 7.12502
rthumb 11.6207 -59.9969
lclavicle -1.39553e-014 -1.49089e-016
lhumerus -42.5421 -14.6106 86.4446
lradius 46.5878
lwrist 19.4854
lhand -10.5838 -20.804
lfingers 7.12502
lthumb 15.4214 8.60077
rfemur -27.927 4.50983 23.9657
rtibia 34.2197
rfoot -11.4995 -9.49552
rtoes 14.6163
lfemur -21.0614 1.06197 -20.8102
ltibia 68.1138
lfoot 2.01854 -0.0155069
ltoes -10.0686
717
root 7.58429 17.2693 -9.04822 7.96929 191.357 -0.727161
lowerback 1.44641 -0.28404 -3.5888
upperback -2.3872 -0.522368 0.226763
thorax -3.23659 -0.185739 2.26831
lowerneck -6.45952 5.93839 7.78282
upperneck 12.5099 8.03385 -8.78348
head 5.49801 3.62477 -3.4673
rclavicle 1.83317e-014 -6.85807e-015
rhumerus -47.4753 9.72355 -89.61
rradius 39.7707
rwrist -6.63892
rhand -15.0254 -29.9708
rfingers 7.12502
rthumb 11.1403 -59.6551
lclavicle 1.83317e-014 -6.85807e-015
lhumerus -42.5298 -14.6418 86.4073
lradius 45.7228
lwrist 18.9305
lhand -9.88599 -20.212
lfingers 7.12502
lthumb 16.0934 9.13974
rfemur -27.2669 4.49866 24.3311
rtibia 33.849
rfoot -11.736 -9.15721
rtoes 14.4963
lfemur -22.5392 1.01752 -20.7759
ltibia 68.9622
lfoot 0.959289 0.00173743
ltoes -8.80978
718
root 7.57821 17.2676 -9.18157 7.87985 190.879 -0.616023
lowerback 1.48664 -0.358402 -3.70165
upperback -2.41875 -0.622156 0.400314
thorax -3.28307 -0.228932 2.51551
lowerneck -5.74511 6.11874 7.54103
upperneck 12.1559 8.31322 -8.77441
head 5.27999 3.76892 -3.42288
rclavicle -3.38866e-015 2.98177e-016
rhumerus -47.3235 10.6953 -89.6133
rradius 40.2424
rwrist -6.5216
rhand -14.9023 -30.0426
rfingers 7.12502
rthumb 11.259 -59.7205
lclavicle -3.38866e-015 2.98177e-016
lhumerus -42.8053 -13.6779 86.3889
lradius 44.8353
lwrist 18.4485
lhand -9.31366 -19.8918
lfingers 7.12502
lthumb 16.6445 9.41451
rfemur -26.5331 4.54612 24.6186
rtibia 33.5828
rfoot -12.018 -8.85468
rtoes 13.732
lfemur -23.6106 1.04002 -20.8494
ltibia 69.5307
lfoot -0.377443 -0.0333588
ltoes -7.33119
